<svg xmlns="http://www.w3.org/2000/svg" width="16" height="16" viewBox="0 0 16 16">
    <path fill-rule="evenodd" d="M13.333.667a2 2 0 0 1 2 2v10.666a2 2 0 0 1-2 2H2.667a2 2 0 0 1-2-2V2.667a2 2 0 0 1 2-2h10.666zM10.966 7.05l-.1.104-2.014 2.323a1 1 0 0 1-.982.319l-.119-.035L6.226 9.2a2 2 0 0 0-2.231.602l-.102.135-.506.729a1.274 1.274 0 0 0 .917 1.993l.13.007h6.9a2 2 0 0 0 1.994-1.851l.005-.15v-2.59a1.405 1.405 0 0 0-2.367-1.025zM5.333 3.333a1.333 1.333 0 1 0 0 2.667 1.333 1.333 0 0 0 0-2.667z" opacity="1"/>
</svg>
